Coordinates
version=1
nRows=21
nColumns=34
inDegrees=no

Units are S.I. units (second, meters, Newtons, ...)
If the header above contains a line with 'inDegrees', this indicates whether rotational values are in degrees (yes) or radians (no).

endheader
time	pelvis_tilt	pelvis_list	pelvis_rotation	pelvis_tx	pelvis_ty	pelvis_tz	hip_flexion_r	hip_adduction_r	hip_rotation_r	knee_angle_r	ankle_angle_r	subtalar_angle_r	mtp_angle_r	hip_flexion_l	hip_adduction_l	hip_rotation_l	knee_angle_l	ankle_angle_l	subtalar_angle_l	mtp_angle_l	lumbar_extension	lumbar_bending	lumbar_rotation	arm_flex_r	arm_add_r	arm_rot_r	elbow_flex_r	pro_sup_r	arm_flex_l	arm_add_l	arm_rot_l	elbow_flex_l	pro_sup_l
0	0.102058	0.0237565	0.0783934	-0.0437934	0.891639	-0.200947	0.297352	0.0012683	-0.149611	0.0712451	0.0912115	0.0973936	-0.0039734	-0.486314	0.0129034	0.0342086	0.112306	0.303338	0.0883017	-0.00398554	-0.4693	-0.0384238	-0.146107	0.00755018	-0.281169	-0.121344	0.681543	2.10479	0.0351356	-0.217928	-0.106432	0.681726	2.05731
0.01	0.0985566	0.0122337	0.0794883	-0.0299342	0.894817	-0.200825	0.300959	0.0121767	-0.153574	0.0944789	0.0736408	0.0850444	-0.00396874	-0.473322	-0.00495067	0.00398182	0.153769	0.2897	0.116887	-0.00398084	-0.460867	-0.0170228	-0.136533	0.00746947	-0.282704	-0.126542	0.677712	2.10589	0.0262646	-0.21524	-0.103372	0.668088	2.0622
0.02	0.0936332	9.00261e-05	0.0796066	-0.0163107	0.897565	-0.200643	0.306094	0.0232728	-0.159172	0.118268	0.0619308	0.0780307	-0.00396409	-0.454953	-0.023999	-0.0238717	0.201257	0.271123	0.139125	-0.00397615	-0.451204	0.00487306	-0.126303	0.00746273	-0.284909	-0.131315	0.675292	2.10691	0.0169887	-0.21191	-0.101457	0.656058	2.0673
0.03	0.0873131	-0.0126661	0.0787817	-0.00293702	0.899924	-0.200408	0.312642	0.0345704	-0.166306	0.142439	0.055962	0.0762108	-0.00395944	-0.431242	-0.0442303	-0.0492741	0.254724	0.247683	0.154956	-0.00397146	-0.440343	0.0272643	-0.115447	0.00753447	-0.287783	-0.135658	0.674278	2.10786	0.00731973	-0.207954	-0.100659	0.645642	2.07258
0.04	0.0796966	-0.026009	0.0771179	0.010176	0.90194	-0.200134	0.320248	0.0461151	-0.17471	0.166485	0.055369	0.0791653	-0.00395478	-0.402343	-0.0656077	-0.0720149	0.313981	0.219671	0.16427	-0.00396676	-0.428391	0.0501528	-0.104058	0.00769447	-0.291319	-0.139565	0.674653	2.10876	-0.0027033	-0.203423	-0.100887	0.636855	2.078
0.05	0.071002	-0.0398868	0.0748148	0.0230229	0.903664	-0.199837	0.328251	0.0579864	-0.183959	0.189529	0.0594769	0.0861578	-0.00395013	-0.368613	-0.088051	-0.0917559	0.378586	0.187755	0.166994	-0.00396207	-0.415575	0.0735335	-0.0923044	0.00795653	-0.295501	-0.143028	0.676369	2.10963	-0.012996	-0.19843	-0.101934	0.62971	2.08349
0.06	0.0615789	-0.0542094	0.0721669	0.035605	0.905158	-0.199538	0.33572	0.0702778	-0.193545	0.210415	0.0673305	0.096208	-0.00394548	-0.330653	-0.111413	-0.108094	0.447788	0.153109	0.163233	-0.00395737	-0.402247	0.097371	-0.0804183	0.00833957	-0.30029	-0.14604	0.67933	2.11047	-0.0234125	-0.19316	-0.103451	0.624206	2.08892
0.07	0.05187	-0.0688346	0.0695243	0.0479279	0.906485	-0.19926	0.341607	0.0830597	-0.202974	0.227916	0.0777941	0.108234	-0.00394083	-0.289258	-0.135451	-0.120667	0.520531	0.117448	0.15339	-0.00395268	-0.388854	0.121561	-0.0686577	0.00887427	-0.305613	-0.14861	0.683377	2.11129	-0.0337355	-0.187871	-0.104952	0.620309	2.09417
0.08	0.0423124	-0.0835093	0.0672183	0.0599979	0.907705	-0.199018	0.344988	0.0962824	-0.211833	0.241007	0.0897176	0.121234	-0.00393617	-0.245287	-0.159742	-0.129234	0.595532	0.0829128	0.138175	-0.00394799	-0.37585	0.145846	-0.0572622	0.00961063	-0.311355	-0.150757	0.688281	2.11201	-0.0436794	-0.182884	-0.105856	0.617949	2.09911
0.09	0.0332906	-0.0978452	0.0655211	0.0718172	0.908871	-0.198825	0.345224	0.10971	-0.219868	0.249072	0.102101	0.134453	-0.00393152	-0.199568	-0.183653	-0.133712	0.671367	0.0518074	0.118545	-0.00394329	-0.363636	0.169791	-0.0464353	0.0106208	-0.317365	-0.152517	0.693756	2.11254	-0.0529151	-0.178543	-0.105569	0.617026	2.10363
0.1	0.0251156	-0.111361	0.0646358	0.0833844	0.910023	-0.198686	0.342007	0.122918	-0.227027	0.251997	0.114207	0.147478	-0.00392687	-0.152861	-0.206385	-0.134188	0.746561	0.0262553	0.095606	-0.0039386	-0.352542	0.192821	-0.0363421	0.0119964	-0.323465	-0.153938	0.699478	2.11274	-0.0611097	-0.17517	-0.103589	0.617419	2.10767
0.11	0.0180205	-0.123549	0.0646944	0.0946948	0.911195	-0.198606	0.335338	0.135361	-0.233456	0.250149	0.125603	0.160242	-0.00392222	-0.105844	-0.227077	-0.130937	0.81968	0.0078515	0.0705073	-0.00393391	-0.342825	0.21431	-0.0271121	0.013842	-0.32947	-0.155078	0.705127	2.1125	-0.0679746	-0.173015	-0.0996075	0.619002	2.1112
0.12	0.0121652	-0.133946	0.0657555	0.105744	0.912408	-0.198586	0.325459	0.146463	-0.239448	0.244267	0.136136	0.172949	-0.00391757	-0.0591179	-0.244929	-0.124406	0.889401	-0.00260432	0.0443376	-0.00392922	-0.334667	0.233674	-0.0188391	0.0162644	-0.335205	-0.156005	0.710414	2.11171	-0.0733114	-0.172219	-0.0935926	0.621662	2.11424
0.13	0.00763817	-0.142205	0.0677969	0.116529	0.91368	-0.198624	0.312771	0.155729	-0.24534	0.235313	0.145864	0.185948	-0.00391292	-0.0132139	-0.259305	-0.115198	0.954565	-0.00522629	0.0180426	-0.00392453	-0.328181	0.25046	-0.011576	0.0193626	-0.340525	-0.156786	0.715124	2.11036	-0.0770451	-0.172787	-0.0858245	0.625304	2.11685
0.14	0.00445512	-0.148131	0.0707045	0.127055	0.915018	-0.198715	0.297763	0.162818	-0.251411	0.224317	0.154963	0.199585	-0.00390827	0.0314008	-0.269808	-0.104034	1.01421	-0.00098307	-0.00762068	-0.00391984	-0.323403	0.264393	-0.00532319	0.0232182	-0.345327	-0.157484	0.719132	2.1085	-0.079237	-0.174589	-0.0768781	0.629848	2.11909
0.15	0.00256108	-0.151696	0.0742633	0.137332	0.916423	-0.198848	0.280954	0.167591	-0.257786	0.212243	0.163652	0.214088	-0.00390362	0.0743223	-0.276307	-0.0917058	1.06758	0.00852204	-0.0320876	-0.00391515	-0.320299	0.275385	-1.62806e-05	0.027888	-0.34956	-0.158144	0.722412	2.10628	-0.080075	-0.177372	-0.067551	0.63522	2.12104
0.16	0.0018362	-0.153024	0.0781561	0.14738	0.917889	-0.199009	0.262854	0.170111	-0.264385	0.199905	0.172119	0.229481	-0.00389897	0.115215	-0.278919	-0.0790288	1.11415	0.021373	-0.0549509	-0.00391046	-0.318767	0.283512	0.0044819	0.0333999	-0.353229	-0.158778	0.725033	2.10392	-0.0798421	-0.180801	-0.0587511	0.641333	2.12273
0.17	0.00210346	-0.152354	0.0819784	0.157223	0.919404	-0.199175	0.243941	0.170605	-0.270905	0.187918	0.180492	0.245563	-0.00389432	0.153817	-0.277981	-0.0667871	1.15357	0.035684	-0.0759047	-0.00390577	-0.318644	0.288974	0.00838082	0.0397518	-0.35639	-0.15935	0.727136	2.10163	-0.0788712	-0.1845	-0.0513659	0.648072	2.12414
0.18	0.00314485	-0.149996	0.0852719	0.166891	0.920949	-0.199322	0.224643	0.169418	-0.276867	0.176699	0.188825	0.261932	-0.00388968	0.189948	-0.273984	-0.0556881	1.18572	0.0498865	-0.0946872	-0.00390108	-0.31973	0.29205	0.0119495	0.0469147	-0.359141	-0.159765	0.728901	2.09964	-0.0774956	-0.188102	-0.0461371	0.655281	2.12518
0.19	0.0047246	-0.14629	0.0875709	0.176415	0.922503	-0.199424	0.205325	0.166949	-0.281694	0.166484	0.197109	0.278063	-0.00388503	0.223508	-0.267526	-0.0463214	1.21061	0.0629076	-0.111043	-0.00389639	-0.321799	0.29305	0.0154903	0.0548367	-0.361615	-0.159858	0.73052	2.0981	-0.0760039	-0.191288	-0.0435649	0.662762	2.12572
0.2	0.00661537	-0.141578	0.0884574	0.185825	0.924043	-0.199457	0.186279	0.163596	-0.284812	0.15736	0.205291	0.293404	-0.00388039	0.25448	-0.259251	-0.0391255	1.2284	0.0742216	-0.124718	-0.00389171	-0.324619	0.292297	0.0193015	0.0634507	-0.363958	-0.159404	0.732164	2.0971	-0.0746087	-0.193819	-0.0438576	0.670283	2.12557
